<?xml version="1.0" standalone="no"?>
<!DOCTYPE svg PUBLIC "-//W3C//DTD SVG 20010904//EN"
 "http://www.w3.org/TR/2001/REC-SVG-20010904/DTD/svg10.dtd">
<svg version="1.0" xmlns="http://www.w3.org/2000/svg"
 width="50.000000pt" height="50.000000pt" viewBox="0 0 700.000000 700.000000"
 preserveAspectRatio="xMidYMid meet">

<g transform="translate(0.000000,700.000000) scale(0.100000,-0.100000)"
fill="#000000" stroke="none">
<path d="M600 6363 c-36 -7 -76 -38 -89 -70 -8 -21 -11 -520 -9 -1930 l3
-1903 33 -32 32 -33 1403 -5 1402 -5 0 -250 0 -250 -455 -5 c-491 -5 -487 -5
-515 -60 -39 -76 -1 -162 80 -180 53 -13 1977 -13 2030 0 81 18 119 104 80
180 -28 55 -24 55 -515 60 l-455 5 0 250 0 250 1402 5 1403 5 32 33 33 32 3
1903 c2 1410 -1 1909 -9 1930 -6 15 -26 38 -43 50 l-31 22 -2895 1 c-1592 1
-2906 -1 -2920 -3z m5650 -1983 l0 -1740 -2750 0 -2750 0 0 1740 0 1740 2750
0 2750 0 0 -1740z"/>
<path d="M3693 5381 c-17 -11 -36 -28 -41 -38 -5 -10 -128 -431 -272 -937
-206 -722 -261 -926 -256 -955 7 -44 51 -87 100 -96 40 -8 97 15 119 48 8 12
132 435 277 941 205 719 261 926 256 954 -13 82 -113 127 -183 83z"/>
<path d="M2945 5072 c-16 -11 -168 -159 -336 -328 -237 -238 -309 -316 -314
-341 -13 -65 16 -101 341 -425 337 -335 340 -337 417 -304 51 21 79 69 74 125
-5 42 -14 53 -266 305 -144 144 -261 266 -261 271 0 6 113 123 251 260 138
138 257 262 265 277 40 75 -10 166 -96 175 -33 3 -53 -1 -75 -15z"/>
<path d="M3950 5083 c-54 -20 -90 -92 -75 -150 4 -18 98 -120 266 -288 142
-143 259 -265 259 -270 0 -5 -120 -130 -266 -277 l-267 -267 5 -52 c4 -43 11
-58 36 -80 41 -37 90 -46 134 -25 19 9 174 157 345 329 234 235 312 319 316
342 13 70 8 77 -317 403 -171 173 -323 320 -338 328 -27 14 -70 17 -98 7z"/>
</g>
</svg>
