<?xml version="1.0" standalone="no"?>
<!DOCTYPE svg PUBLIC "-//W3C//DTD SVG 20010904//EN"
 "http://www.w3.org/TR/2001/REC-SVG-20010904/DTD/svg10.dtd">
<svg version="1.0" xmlns="http://www.w3.org/2000/svg"
 width="512.000000pt" height="249.000000pt" viewBox="0 0 512.000000 249.000000"
 preserveAspectRatio="xMidYMid meet">

<g transform="translate(0.000000,249.000000) scale(0.100000,-0.100000)"
fill="#000000" stroke="none">
<path d="M0 1245 l0 -1245 2560 0 2560 0 0 1245 0 1245 -2560 0 -2560 0 0
-1245z m2647 810 c47 -9 112 -31 163 -56 237 -116 351 -356 351 -734 -1 -410
-148 -658 -451 -761 -77 -27 -318 -27 -405 0 -128 39 -215 98 -291 200 -59 78
-89 146 -122 276 -24 94 -26 124 -26 290 -1 169 2 195 26 292 56 222 170 374
340 456 107 52 263 66 415 37z m-1115 -466 l-4 -451 116 3 116 4 0 -164 0
-164 -116 7 -117 8 5 -161 5 -161 -189 0 c-169 0 -189 2 -184 16 3 9 9 80 13
160 l6 144 -386 -7 -387 -6 0 162 c0 106 -3 160 -10 156 -25 -16 -5 12 45 62
30 31 108 117 173 192 331 382 440 511 485 570 27 37 55 69 61 73 6 4 92 8
191 8 l180 0 -3 -451z m2840 0 l-4 -452 116 6 116 5 0 -166 0 -165 -116 7
-117 7 5 -161 5 -160 -203 0 -203 0 6 161 6 160 -362 -2 c-199 -1 -364 1 -367
4 -4 3 -3 77 1 164 l7 158 53 60 c175 199 615 719 649 767 l41 57 185 1 185 0
-3 -451z"/>
<path d="M2584 1911 c-74 -36 -85 -49 -92 -106 -4 -42 -7 -46 -41 -55 -51 -13
-117 -73 -146 -131 -14 -26 -25 -51 -25 -54 0 -11 22 -4 50 16 24 19 38 21 89
16 55 -5 61 -3 61 14 0 11 9 27 19 36 15 13 17 21 10 41 -13 34 -2 64 20 57
14 -4 19 3 27 32 l9 38 75 1 c41 0 87 4 103 9 18 5 27 3 27 -4 0 -6 4 -11 8
-11 14 0 44 75 40 101 -3 23 -7 24 -88 27 -76 2 -91 -1 -146 -27z"/>
<path d="M2658 1573 c-21 -2 -38 -8 -38 -12 0 -9 92 -52 98 -46 6 6 -9 65 -16
63 -4 -1 -24 -3 -44 -5z"/>
<path d="M2579 1534 c-13 -15 -18 -25 -10 -22 13 4 49 48 39 48 -2 0 -15 -12
-29 -26z"/>
<path d="M2770 1521 c0 -14 9 -25 26 -32 15 -5 29 -7 32 -4 3 3 3 6 1 8 -2 1
-16 13 -31 26 l-28 24 0 -22z"/>
<path d="M2711 1183 c-13 -54 -41 -147 -63 -208 -57 -161 -56 -155 -18 -120
40 38 73 102 93 185 20 81 34 240 20 240 -5 0 -20 -44 -32 -97z"/>
<path d="M1138 1532 c-26 -31 -108 -131 -182 -222 -75 -91 -136 -168 -136
-172 0 -9 284 -11 328 -2 l30 6 4 222 c2 121 3 222 3 223 0 1 -22 -24 -47 -55z"/>
<path d="M3985 1536 c-44 -48 -319 -386 -323 -397 -4 -11 315 -12 322 -1 3 5
6 75 7 155 0 81 5 145 9 142 12 -7 22 51 18 97 l-3 37 -30 -33z"/>
</g>
</svg>
