<?xml version="1.0" standalone="no"?>
<!DOCTYPE svg PUBLIC "-//W3C//DTD SVG 20010904//EN"
 "http://www.w3.org/TR/2001/REC-SVG-20010904/DTD/svg10.dtd">
<svg version="1.0" xmlns="http://www.w3.org/2000/svg"
 width="75.000000pt" height="75.000000pt" viewBox="0 0 700.000000 700.000000"
 preserveAspectRatio="xMidYMid meet">

<g transform="translate(0.000000,700.000000) scale(0.100000,-0.100000)"
fill="#000000" stroke="none">
<path d="M3235 6989 c-1170 -102 -2188 -897 -2570 -2010 -375 -1089 -98 -2286
715 -3099 907 -907 2285 -1138 3435 -575 757 371 1313 1026 1558 1835 231 762
138 1626 -249 2316 -584 1039 -1707 1635 -2889 1533z m738 -1379 c171 -48 187
-54 181 -72 -3 -11 -207 -735 -454 -1609 -246 -875 -450 -1592 -452 -1595 -10
-9 -409 109 -405 120 3 6 203 718 446 1581 243 864 447 1585 453 1603 7 24 15
32 27 29 9 -2 100 -28 204 -57z m-1531 -447 l148 -148 -507 -507 -508 -508
508 -508 507 -507 -150 -150 -150 -150 -658 658 -657 657 655 655 c360 360
657 655 660 655 3 0 71 -66 152 -147z m2928 -508 l655 -655 -657 -657 -658
-658 -150 150 -150 150 507 507 508 508 -508 508 -507 507 147 148 c82 81 150
147 153 147 3 0 300 -295 660 -655z"/>
</g>
</svg>
